<svg xmlns="http://www.w3.org/2000/svg" xmlns:xlink="http://www.w3.org/1999/xlink" preserveAspectRatio="xMidYMid" width="49" height="34" viewBox="0 0 49 34">
  <defs>
    <style>

      .cls-2 {
        fill: #ffffff;
      }
    </style>
  </defs>
  <path d="M37.988,26.227 C37.670,26.313 37.339,26.128 37.238,25.821 C37.238,25.821 34.571,17.713 34.571,17.713 C34.454,17.359 34.691,17.003 35.064,16.930 C36.811,16.593 38.118,15.251 38.062,13.433 C38.001,11.439 36.221,9.996 34.180,9.996 C34.180,9.996 22.619,9.996 22.619,9.996 C22.198,9.996 21.899,9.595 22.028,9.203 C22.028,9.203 24.623,0.843 24.623,0.843 C24.770,0.395 25.171,0.091 25.637,0.027 C25.637,0.027 25.637,0.000 25.637,0.000 C25.637,0.000 34.011,0.000 34.011,0.000 C41.405,0.000 47.879,5.902 48.003,13.127 C48.111,19.368 43.835,24.647 37.988,26.227 ZM16.578,16.207 C16.449,16.599 16.749,17.000 17.170,17.000 C17.170,17.000 30.324,17.000 30.324,17.000 C30.863,17.000 31.341,17.341 31.507,17.843 C31.507,17.843 36.300,32.414 36.300,32.414 C36.558,33.198 35.959,34.000 35.117,34.000 C35.117,34.000 26.543,34.000 26.543,34.000 C26.004,34.000 25.525,33.659 25.360,33.157 C25.360,33.157 23.380,27.417 23.380,27.417 C23.297,27.166 23.058,26.996 22.788,26.996 C22.788,26.996 13.575,26.996 13.575,26.996 C13.305,26.996 13.066,27.166 12.983,27.417 C12.983,27.417 11.003,33.157 11.003,33.157 C10.837,33.659 10.359,34.000 9.820,34.000 C9.820,34.000 1.246,34.000 1.246,34.000 C0.404,34.000 -0.195,33.198 0.063,32.414 C0.063,32.414 10.310,1.264 10.310,1.264 C10.557,0.511 11.275,0.000 12.084,0.000 C12.084,0.000 20.205,0.000 20.205,0.000 C21.047,0.000 21.646,0.802 21.388,1.586 C21.388,1.586 16.578,16.207 16.578,16.207 Z" id="path-1" class="cls-2" fill-rule="evenodd"/>
</svg>
